<svg width="18" height="14" viewBox="0 0 18 14" fill="none" xmlns="http://www.w3.org/2000/svg">
<path d="M16.5 3.35449V10.8545C16.5 11.3518 16.3025 11.8287 15.9508 12.1803C15.5992 12.5319 15.1223 12.7295 14.625 12.7295H3.375C2.87772 12.7295 2.40081 12.5319 2.04917 12.1803C1.69754 11.8287 1.5 11.3518 1.5 10.8545V3.35449" stroke="#858585" stroke-width="2" stroke-linecap="round" stroke-linejoin="round"/>
<path d="M16.5 3.35449C16.5 2.85721 16.3025 2.3803 15.9508 2.02867C15.5992 1.67704 15.1223 1.47949 14.625 1.47949H3.375C2.87772 1.47949 2.40081 1.67704 2.04917 2.02867C1.69754 2.3803 1.5 2.85721 1.5 3.35449L8.00625 7.41699C8.30425 7.60324 8.64859 7.702 9 7.702C9.35141 7.702 9.69575 7.60324 9.99375 7.41699L16.5 3.35449Z" stroke="#858585" stroke-width="2" stroke-linecap="round" stroke-linejoin="round"/>
</svg>
